<svg id="visual" viewBox="0 0 960 540" width="960" height="540" xmlns="http://www.w3.org/2000/svg" xmlns:xlink="http://www.w3.org/1999/xlink" version="1.1"><rect x="0" y="0" width="960" height="540" fill="#000000"></rect><path d="M0 295L8.5 291.8C17 288.7 34 282.3 50.8 291.2C67.7 300 84.3 324 101.2 339.8C118 355.7 135 363.3 151.8 365.8C168.7 368.3 185.3 365.7 202.2 354.2C219 342.7 236 322.3 252.8 313.3C269.7 304.3 286.3 306.7 303.2 306.7C320 306.7 337 304.3 353.8 307.5C370.7 310.7 387.3 319.3 404.2 328.7C421 338 438 348 454.8 354.2C471.7 360.3 488.3 362.7 505.2 350.5C522 338.3 539 311.7 555.8 301.8C572.7 292 589.3 299 606.2 300.2C623 301.3 640 296.7 656.8 295.2C673.7 293.7 690.3 295.3 707.2 298C724 300.7 741 304.3 757.8 307.8C774.7 311.3 791.3 314.7 808.2 312.2C825 309.7 842 301.3 858.8 309.7C875.7 318 892.3 343 909.2 343.7C926 344.3 943 320.7 951.5 308.8L960 297L960 541L951.5 541C943 541 926 541 909.2 541C892.3 541 875.7 541 858.8 541C842 541 825 541 808.2 541C791.3 541 774.7 541 757.8 541C741 541 724 541 707.2 541C690.3 541 673.7 541 656.8 541C640 541 623 541 606.2 541C589.3 541 572.7 541 555.8 541C539 541 522 541 505.2 541C488.3 541 471.7 541 454.8 541C438 541 421 541 404.2 541C387.3 541 370.7 541 353.8 541C337 541 320 541 303.2 541C286.3 541 269.7 541 252.8 541C236 541 219 541 202.2 541C185.3 541 168.7 541 151.8 541C135 541 118 541 101.2 541C84.3 541 67.7 541 50.8 541C34 541 17 541 8.5 541L0 541Z" fill="#411010"></path><path d="M0 387L8.5 377.7C17 368.3 34 349.7 50.8 342.7C67.7 335.7 84.3 340.3 101.2 341.8C118 343.3 135 341.7 151.8 348.7C168.7 355.7 185.3 371.3 202.2 376.2C219 381 236 375 252.8 369.5C269.7 364 286.3 359 303.2 360.3C320 361.7 337 369.3 353.8 375.8C370.7 382.3 387.3 387.7 404.2 382.5C421 377.3 438 361.7 454.8 356.7C471.7 351.7 488.3 357.3 505.2 358.5C522 359.7 539 356.3 555.8 362C572.7 367.7 589.3 382.3 606.2 377.7C623 373 640 349 656.8 334C673.7 319 690.3 313 707.2 326.3C724 339.7 741 372.3 757.8 376.3C774.7 380.3 791.3 355.7 808.2 349.2C825 342.7 842 354.3 858.8 363.8C875.7 373.3 892.3 380.7 909.2 373.2C926 365.7 943 343.3 951.5 332.2L960 321L960 541L951.5 541C943 541 926 541 909.2 541C892.3 541 875.7 541 858.8 541C842 541 825 541 808.2 541C791.3 541 774.7 541 757.8 541C741 541 724 541 707.2 541C690.3 541 673.7 541 656.8 541C640 541 623 541 606.2 541C589.3 541 572.7 541 555.8 541C539 541 522 541 505.2 541C488.3 541 471.7 541 454.8 541C438 541 421 541 404.2 541C387.3 541 370.7 541 353.8 541C337 541 320 541 303.2 541C286.3 541 269.7 541 252.8 541C236 541 219 541 202.2 541C185.3 541 168.7 541 151.8 541C135 541 118 541 101.2 541C84.3 541 67.7 541 50.8 541C34 541 17 541 8.5 541L0 541Z" fill="#4f1213"></path><path d="M0 344L8.5 347.2C17 350.3 34 356.7 50.8 361.5C67.7 366.3 84.3 369.7 101.2 368.2C118 366.7 135 360.3 151.8 358.7C168.7 357 185.3 360 202.2 365.2C219 370.3 236 377.7 252.8 379.2C269.7 380.7 286.3 376.3 303.2 381.5C320 386.7 337 401.3 353.8 401C370.7 400.7 387.3 385.3 404.2 381.2C421 377 438 384 454.8 393.5C471.7 403 488.3 415 505.2 411.2C522 407.3 539 387.7 555.8 378C572.7 368.3 589.3 368.7 606.2 364.2C623 359.7 640 350.3 656.8 354.7C673.7 359 690.3 377 707.2 378.3C724 379.7 741 364.3 757.8 359.2C774.7 354 791.3 359 808.2 361.3C825 363.7 842 363.3 858.8 372.5C875.7 381.7 892.3 400.3 909.2 405.7C926 411 943 403 951.5 399L960 395L960 541L951.5 541C943 541 926 541 909.2 541C892.3 541 875.7 541 858.8 541C842 541 825 541 808.2 541C791.3 541 774.7 541 757.8 541C741 541 724 541 707.2 541C690.3 541 673.7 541 656.8 541C640 541 623 541 606.2 541C589.3 541 572.7 541 555.8 541C539 541 522 541 505.2 541C488.3 541 471.7 541 454.8 541C438 541 421 541 404.2 541C387.3 541 370.7 541 353.8 541C337 541 320 541 303.2 541C286.3 541 269.7 541 252.8 541C236 541 219 541 202.2 541C185.3 541 168.7 541 151.8 541C135 541 118 541 101.2 541C84.3 541 67.7 541 50.8 541C34 541 17 541 8.5 541L0 541Z" fill="#5d1415"></path><path d="M0 451L8.5 443.2C17 435.3 34 419.7 50.8 410.3C67.7 401 84.3 398 101.2 397.2C118 396.3 135 397.7 151.8 398.5C168.7 399.3 185.3 399.7 202.2 405.5C219 411.3 236 422.7 252.8 425.7C269.7 428.7 286.3 423.3 303.2 415.2C320 407 337 396 353.8 398.2C370.7 400.3 387.3 415.7 404.2 421.3C421 427 438 423 454.8 419.5C471.7 416 488.3 413 505.2 408.3C522 403.7 539 397.3 555.8 398.8C572.7 400.3 589.3 409.7 606.2 410.7C623 411.7 640 404.3 656.8 406.2C673.7 408 690.3 419 707.2 417C724 415 741 400 757.8 398.5C774.7 397 791.3 409 808.2 410.8C825 412.7 842 404.3 858.8 406.8C875.7 409.3 892.3 422.7 909.2 428.7C926 434.7 943 433.3 951.5 432.7L960 432L960 541L951.5 541C943 541 926 541 909.2 541C892.3 541 875.7 541 858.8 541C842 541 825 541 808.2 541C791.3 541 774.7 541 757.8 541C741 541 724 541 707.2 541C690.3 541 673.7 541 656.8 541C640 541 623 541 606.2 541C589.3 541 572.7 541 555.8 541C539 541 522 541 505.2 541C488.3 541 471.7 541 454.8 541C438 541 421 541 404.2 541C387.3 541 370.7 541 353.8 541C337 541 320 541 303.2 541C286.3 541 269.7 541 252.8 541C236 541 219 541 202.2 541C185.3 541 168.7 541 151.8 541C135 541 118 541 101.2 541C84.3 541 67.7 541 50.8 541C34 541 17 541 8.5 541L0 541Z" fill="#6c1617"></path><path d="M0 447L8.5 446.3C17 445.7 34 444.3 50.8 447.2C67.7 450 84.3 457 101.2 457.2C118 457.3 135 450.7 151.8 449C168.7 447.3 185.3 450.7 202.2 445.5C219 440.3 236 426.7 252.8 419.3C269.7 412 286.3 411 303.2 416.3C320 421.7 337 433.3 353.8 435.2C370.7 437 387.3 429 404.2 433C421 437 438 453 454.8 458C471.7 463 488.3 457 505.2 451.5C522 446 539 441 555.8 443.3C572.7 445.7 589.3 455.3 606.2 458.7C623 462 640 459 656.8 455.2C673.7 451.3 690.3 446.7 707.2 445.2C724 443.7 741 445.3 757.8 443.5C774.7 441.7 791.3 436.3 808.2 432.7C825 429 842 427 858.8 426.8C875.7 426.7 892.3 428.3 909.2 426.8C926 425.3 943 420.7 951.5 418.3L960 416L960 541L951.5 541C943 541 926 541 909.2 541C892.3 541 875.7 541 858.8 541C842 541 825 541 808.2 541C791.3 541 774.7 541 757.8 541C741 541 724 541 707.2 541C690.3 541 673.7 541 656.8 541C640 541 623 541 606.2 541C589.3 541 572.7 541 555.8 541C539 541 522 541 505.2 541C488.3 541 471.7 541 454.8 541C438 541 421 541 404.2 541C387.3 541 370.7 541 353.8 541C337 541 320 541 303.2 541C286.3 541 269.7 541 252.8 541C236 541 219 541 202.2 541C185.3 541 168.7 541 151.8 541C135 541 118 541 101.2 541C84.3 541 67.7 541 50.8 541C34 541 17 541 8.5 541L0 541Z" fill="#7b1819"></path><path d="M0 465L8.5 469.3C17 473.7 34 482.3 50.8 479.8C67.7 477.3 84.3 463.7 101.2 458.2C118 452.7 135 455.3 151.8 460.8C168.7 466.3 185.3 474.7 202.2 480C219 485.3 236 487.7 252.8 481.5C269.7 475.3 286.3 460.7 303.2 457.8C320 455 337 464 353.8 464C370.7 464 387.3 455 404.2 454.7C421 454.3 438 462.7 454.8 466.2C471.7 469.7 488.3 468.3 505.2 470.3C522 472.3 539 477.7 555.8 482.5C572.7 487.3 589.3 491.7 606.2 488.5C623 485.3 640 474.7 656.8 468.3C673.7 462 690.3 460 707.2 459.7C724 459.3 741 460.7 757.8 466.3C774.7 472 791.3 482 808.2 481C825 480 842 468 858.8 461.3C875.7 454.7 892.3 453.3 909.2 458.8C926 464.3 943 476.7 951.5 482.8L960 489L960 541L951.5 541C943 541 926 541 909.2 541C892.3 541 875.7 541 858.8 541C842 541 825 541 808.2 541C791.3 541 774.7 541 757.8 541C741 541 724 541 707.2 541C690.3 541 673.7 541 656.8 541C640 541 623 541 606.2 541C589.3 541 572.7 541 555.8 541C539 541 522 541 505.2 541C488.3 541 471.7 541 454.8 541C438 541 421 541 404.2 541C387.3 541 370.7 541 353.8 541C337 541 320 541 303.2 541C286.3 541 269.7 541 252.8 541C236 541 219 541 202.2 541C185.3 541 168.7 541 151.8 541C135 541 118 541 101.2 541C84.3 541 67.7 541 50.8 541C34 541 17 541 8.5 541L0 541Z" fill="#8a191a"></path><path d="M0 508L8.5 506.3C17 504.7 34 501.3 50.8 501.7C67.7 502 84.3 506 101.2 504.7C118 503.3 135 496.7 151.8 496.8C168.7 497 185.3 504 202.2 505.5C219 507 236 503 252.8 500.8C269.7 498.7 286.3 498.3 303.2 498.5C320 498.7 337 499.3 353.8 501.2C370.7 503 387.3 506 404.2 503.5C421 501 438 493 454.8 493.3C471.7 493.7 488.3 502.3 505.2 504.8C522 507.3 539 503.7 555.8 500.2C572.7 496.7 589.3 493.3 606.2 494.2C623 495 640 500 656.8 499.5C673.7 499 690.3 493 707.2 492.7C724 492.3 741 497.7 757.8 496.7C774.7 495.7 791.3 488.3 808.2 490.7C825 493 842 505 858.8 507.3C875.7 509.7 892.3 502.3 909.2 501.5C926 500.7 943 506.3 951.5 509.2L960 512L960 541L951.5 541C943 541 926 541 909.2 541C892.3 541 875.7 541 858.8 541C842 541 825 541 808.2 541C791.3 541 774.7 541 757.8 541C741 541 724 541 707.2 541C690.3 541 673.7 541 656.8 541C640 541 623 541 606.2 541C589.3 541 572.7 541 555.8 541C539 541 522 541 505.2 541C488.3 541 471.7 541 454.8 541C438 541 421 541 404.2 541C387.3 541 370.7 541 353.8 541C337 541 320 541 303.2 541C286.3 541 269.7 541 252.8 541C236 541 219 541 202.2 541C185.3 541 168.7 541 151.8 541C135 541 118 541 101.2 541C84.3 541 67.7 541 50.8 541C34 541 17 541 8.5 541L0 541Z" fill="#991b1b"></path></svg>